<svg width="28" height="28" viewBox="0 0 28 28" fill="none" xmlns="http://www.w3.org/2000/svg">
<path fill-rule="evenodd" clip-rule="evenodd" d="M6.00033 0.666992C4.58584 0.666992 3.22928 1.2289 2.22909 2.22909C1.2289 3.22928 0.666992 4.58584 0.666992 6.00033V22.0003C0.666992 23.4148 1.2289 24.7714 2.22909 25.7716C3.22928 26.7718 4.58584 27.3337 6.00033 27.3337H22.0003C23.4148 27.3337 24.7714 26.7718 25.7716 25.7716C26.7718 24.7714 27.3337 23.4148 27.3337 22.0003V6.00033C27.3337 4.58584 26.7718 3.22928 25.7716 2.22909C24.7714 1.2289 23.4148 0.666992 22.0003 0.666992H6.00033ZM3.33366 6.00033C3.33366 5.29308 3.61461 4.6148 4.11471 4.11471C4.6148 3.61461 5.29308 3.33366 6.00033 3.33366H22.0003C22.7076 3.33366 23.3858 3.61461 23.8859 4.11471C24.386 4.6148 24.667 5.29308 24.667 6.00033V22.0003C24.667 22.7076 24.386 23.3858 23.8859 23.8859C23.3858 24.386 22.7076 24.667 22.0003 24.667H6.00033C5.29308 24.667 4.6148 24.386 4.11471 23.8859C3.61461 23.3858 3.33366 22.7076 3.33366 22.0003V6.00033ZM10.0003 12.667C10.0003 12.3134 9.85985 11.9742 9.6098 11.7242C9.35975 11.4741 9.02061 11.3337 8.66699 11.3337C8.31337 11.3337 7.97423 11.4741 7.72418 11.7242C7.47413 11.9742 7.33366 12.3134 7.33366 12.667V20.667C7.33366 21.0206 7.47413 21.3598 7.72418 21.6098C7.97423 21.8599 8.31337 22.0003 8.66699 22.0003C9.02061 22.0003 9.35975 21.8599 9.6098 21.6098C9.85985 21.3598 10.0003 21.0206 10.0003 20.667V12.667ZM10.667 8.00033C10.667 8.53076 10.4563 9.03947 10.0812 9.41454C9.70613 9.78961 9.19742 10.0003 8.66699 10.0003C8.13656 10.0003 7.62785 9.78961 7.25278 9.41454C6.87771 9.03947 6.66699 8.53076 6.66699 8.00033C6.66699 7.46989 6.87771 6.96118 7.25278 6.58611C7.62785 6.21104 8.13656 6.00033 8.66699 6.00033C9.19742 6.00033 9.70613 6.21104 10.0812 6.58611C10.4563 6.96118 10.667 7.46989 10.667 8.00033ZM14.0003 11.3337C14.4537 11.3337 14.8537 11.5603 15.0937 11.9043C15.7809 11.5298 16.551 11.3336 17.3337 11.3337C20.2137 11.3337 22.0003 13.9017 22.0003 16.095V20.667C22.0003 21.0206 21.8598 21.3598 21.6098 21.6098C21.3598 21.8599 21.0206 22.0003 20.667 22.0003C20.3134 22.0003 19.9742 21.8599 19.7242 21.6098C19.4741 21.3598 19.3337 21.0206 19.3337 20.667V16.0937C19.3337 15.0697 18.4537 13.999 17.3337 13.999C16.635 13.999 15.863 14.379 15.3337 15.283V20.667C15.3337 21.0206 15.1932 21.3598 14.9431 21.6098C14.6931 21.8599 14.3539 22.0003 14.0003 22.0003C13.6467 22.0003 13.3076 21.8599 13.0575 21.6098C12.8075 21.3598 12.667 21.0206 12.667 20.667V12.667C12.667 12.3134 12.8075 11.9742 13.0575 11.7242C13.3076 11.4741 13.6467 11.3337 14.0003 11.3337Z" fill="#C4B6B6"/>
</svg>
